<svg id="Layer_1" data-name="Layer 1" xmlns="http://www.w3.org/2000/svg" viewBox="0 0 512.19 759.93"><defs><style>.cls-1{fill:#29abe2;}.cls-2{opacity:0.75;}.cls-3{fill:#0071bc;}</style></defs><title>Artboard 1</title><path class="cls-1" d="M.18-.15H198.32c152.06,0,246.52,59.9,246.52,184.32,0,80.64-41.47,142.84-119.8,165.88v4.61C426.41,370.79,493.23,433,493.23,539c0,145.15-108.29,221.18-281.09,221.18H.18Zm175.1,338.68c165.89,0,232.7-57.6,232.7-152.06C408,73.57,329.65,32.1,182.19,32.1H37V338.53Zm23,389.38c159,0,258-57.6,258-186.63,0-115.2-94.46-170.49-258-170.49H37V727.91Z"/><g class="cls-2"><path class="cls-3" d="M.2-.15H170.69c235,0,341,152.06,341,377.85s-106,382.46-341,382.46H.2ZM166.09,727.91c216.57,0,306.43-149.76,306.43-350.21S382.66,32.1,166.09,32.1h-129V727.91Z"/></g></svg>